<svg width="32" height="32" viewBox="0 0 32 32" fill="none" xmlns="http://www.w3.org/2000/svg">
<path d="M19.75 19.2279H27C27.3246 19.2279 27.6404 19.3303 27.9 19.5196L29.3 20.5404C29.7944 20.9008 30.5 20.5579 30.5 19.9571V2.95824C30.5 2.15287 29.8284 1.5 29 1.5H13.75C12.9216 1.5 12.25 2.15287 12.25 2.95824V11.3125M18.7647 6L18.1412 8.46507M18.1412 8.46507L17.5 11M18.1412 8.46507H17M18.1412 8.46507H20.5294C20.5778 10.1463 20.2987 10.9893 19.7273 12.4708M22.2941 7.23253H27L24.6471 9.08134V10.9301M24.6471 10.9301V14.6277C24.0386 15.0884 23.6675 15.1586 22.8824 14.6277M24.6471 10.9301H22.2941M24.6471 10.9301H27M5 29H18.25C19.0784 29 19.75 28.3471 19.75 27.5418V12.7707C19.75 11.9654 19.0784 11.3125 18.25 11.3125H3C2.17157 11.3125 1.5 11.9654 1.5 12.7707V29.7291C1.5 30.3299 2.20557 30.6729 2.7 30.3124L4.1 29.2916C4.35964 29.1023 4.67544 29 5 29Z" stroke="black" stroke-linecap="round" stroke-linejoin="round"/>
<path d="M7 24L8.3125 21M14 24L12.6875 21M8.3125 21L8.75 20L10.5 16L12.25 20L12.6875 21M8.3125 21H12.6875" stroke="black" stroke-width="2" stroke-linecap="round" stroke-linejoin="round"/>
</svg>
